<svg width="32" height="32" viewBox="0 0 32 32" fill="none" xmlns="http://www.w3.org/2000/svg">
<path opacity="0.35" d="M16 29.3333C23.3638 29.3333 29.3333 23.3638 29.3333 16C29.3333 8.63616 23.3638 2.66663 16 2.66663C8.63619 2.66663 2.66666 8.63616 2.66666 16C2.66666 23.3638 8.63619 29.3333 16 29.3333Z" fill="#4EB0BD"/>
<path d="M14.6667 21.3333C14.3253 21.3333 13.984 21.2027 13.724 20.9427L9.72401 16.9427C9.20267 16.4213 9.20267 15.5787 9.72401 15.0573C10.2453 14.536 11.088 14.536 11.6093 15.0573L14.6667 18.1147L27.0573 5.72401C27.5787 5.20267 28.4213 5.20267 28.9427 5.72401C29.464 6.24534 29.464 7.08801 28.9427 7.60934L15.6093 20.9427C15.3493 21.2027 15.008 21.3333 14.6667 21.3333Z" fill="#4EB0BD"/>
</svg>
