<svg width="75" height="75" viewBox="0 0 75 75" fill="none" xmlns="http://www.w3.org/2000/svg">
<path opacity="0.35" d="M18.75 65.625H12.5C9.04688 65.625 6.25 62.8281 6.25 59.375V50C6.25 46.5469 9.04688 43.75 12.5 43.75H18.75C22.2031 43.75 25 46.5469 25 50V59.375C25 62.8281 22.2031 65.625 18.75 65.625Z" fill="#4EB0BD"/>
<path opacity="0.35" d="M62.5 65.625H56.25C52.7969 65.625 50 62.8281 50 59.375V40.625C50 37.1719 52.7969 34.375 56.25 34.375H62.5C65.9531 34.375 68.75 37.1719 68.75 40.625V59.375C68.75 62.8281 65.9531 65.625 62.5 65.625Z" fill="#4EB0BD"/>
<path opacity="0.35" d="M40.625 65.625H34.375C30.9219 65.625 28.125 62.8281 28.125 59.375V31.25C28.125 27.7969 30.9219 25 34.375 25H40.625C44.0781 25 46.875 27.7969 46.875 31.25V59.375C46.875 62.8281 44.0781 65.625 40.625 65.625Z" fill="#4EB0BD"/>
<path d="M15.6843 28.125C14.6031 28.125 13.5531 27.5656 12.9749 26.5656C12.1093 25.0687 12.6218 23.1594 14.1124 22.2969L35.9312 9.67498C36.6656 9.24998 37.5374 9.14686 38.3437 9.36873L60.2187 15.5344C61.8781 16.0031 62.8468 17.7281 62.3781 19.3906C61.9093 21.05 60.1874 22.0187 58.5218 21.55L37.9156 15.7437L17.2468 27.7031C16.7499 27.9906 16.2124 28.125 15.6843 28.125Z" fill="#4EB0BD"/>
<path d="M59.375 25C62.8268 25 65.625 22.2018 65.625 18.75C65.625 15.2982 62.8268 12.5 59.375 12.5C55.9232 12.5 53.125 15.2982 53.125 18.75C53.125 22.2018 55.9232 25 59.375 25Z" fill="#4EB0BD"/>
<path d="M37.5 18.75C40.9518 18.75 43.75 15.9518 43.75 12.5C43.75 9.04822 40.9518 6.25 37.5 6.25C34.0482 6.25 31.25 9.04822 31.25 12.5C31.25 15.9518 34.0482 18.75 37.5 18.75Z" fill="#4EB0BD"/>
<path d="M15.625 31.25C19.0768 31.25 21.875 28.4518 21.875 25C21.875 21.5482 19.0768 18.75 15.625 18.75C12.1732 18.75 9.375 21.5482 9.375 25C9.375 28.4518 12.1732 31.25 15.625 31.25Z" fill="#4EB0BD"/>
</svg>
