<svg width="69" height="69" viewBox="0 0 69 69" fill="none" xmlns="http://www.w3.org/2000/svg">
<path opacity="0.35" d="M11.5 54.625V14.375C11.5 9.61113 15.3611 5.75 20.125 5.75H48.875C53.6389 5.75 57.5 9.61113 57.5 14.375V54.625C57.5 59.3889 53.6389 63.25 48.875 63.25H20.125C15.3611 63.25 11.5 59.3889 11.5 54.625Z" fill="#4EB0BD"/>
<path d="M31.625 48.875C30.889 48.875 30.153 48.5932 29.5924 48.0326L20.9674 39.4076C19.8432 38.2835 19.8432 36.4665 20.9674 35.3424C22.0915 34.2182 23.9085 34.2182 25.0326 35.3424L31.625 41.9347L43.9674 29.5924C45.0915 28.4682 46.9085 28.4682 48.0326 29.5924C49.1567 30.7165 49.1567 32.5335 48.0326 33.6576L33.6576 48.0326C33.097 48.5932 32.361 48.875 31.625 48.875Z" fill="#4EB0BD"/>
<path d="M41.6875 11.5H27.3125C24.9291 11.5 23 9.568 23 7.1875C23 4.807 24.9291 2.875 27.3125 2.875H41.6875C44.0709 2.875 46 4.807 46 7.1875C46 9.568 44.0709 11.5 41.6875 11.5Z" fill="#4EB0BD"/>
</svg>
