<svg width="63" height="63" viewBox="0 0 63 63" fill="none" xmlns="http://www.w3.org/2000/svg">
<path opacity="0.35" d="M55.5345 44.8376L40.5352 29.8069C39.2989 28.5679 37.296 28.5626 36.0517 29.7937L35.5451 30.2951L21.2362 15.9862C20.3805 13.4216 18.7661 11.1799 16.6031 9.5576L11.7547 5.92198C10.416 4.91923 8.54436 5.05048 7.36311 6.23435L6.23435 7.3631C5.05048 8.54435 4.91923 10.416 5.92198 11.7547L9.5576 16.6031C11.1799 18.7661 13.4216 20.3805 15.9862 21.2362L30.2715 35.5215L29.8174 35.9704C28.5679 37.2067 28.5626 39.2253 29.8042 40.4696L44.8402 55.5345C47.7934 58.4876 52.5814 58.4876 55.5371 55.5345C58.4876 52.5814 58.4876 47.7933 55.5345 44.8376Z" fill="#4EB0BD"/>
<path d="M7.47339 55.5267C10.437 58.4903 15.2434 58.4903 18.207 55.5267L42 31.7836L31.3163 20.9974L7.47339 44.7957C4.50977 47.7567 4.50977 52.5631 7.47339 55.5267Z" fill="#4EB0BD"/>
<path d="M47.8117 22.6118C45.6356 24.7879 42.0236 24.654 40.0233 22.2102C38.2856 20.0839 38.6557 16.9181 40.5982 14.9757L46.5333 9.04053C47.6306 7.94328 47.1266 6.03753 45.6172 5.67528C43.4201 5.15028 41.0471 5.08465 38.5848 5.61753C32.4712 6.94578 27.5992 11.9543 26.5072 18.1125C24.5647 29.0588 33.9412 38.4353 44.8875 36.4928C51.0483 35.4008 56.0542 30.5288 57.3798 24.4125C57.9127 21.9503 57.8497 19.5773 57.3221 17.3801C56.9598 15.8708 55.0567 15.3668 53.9595 16.4614C51.3266 19.0995 48.3892 22.0343 47.8117 22.6118Z" fill="#4EB0BD"/>
</svg>
