<svg width="59" height="59" viewBox="0 0 59 59" fill="none" xmlns="http://www.w3.org/2000/svg">
<path d="M50.4204 48.5349L49.0069 47.1214C44.5892 51.4062 38.6032 54.0834 31.9583 54.0834C18.381 54.0834 7.375 43.0774 7.375 29.5C7.375 15.9226 18.381 4.91669 31.9583 4.91669C38.1189 4.91669 43.7387 7.1931 48.0481 10.9421C50.2778 12.8817 50.1156 16.4168 47.8441 18.3097C45.9561 19.883 43.2716 19.7306 41.3836 18.1573C38.8294 16.0308 35.5426 14.75 31.9583 14.75C23.8114 14.75 17.2083 21.3531 17.2083 29.5C17.2083 37.6469 23.8114 44.25 31.9583 44.25C35.8867 44.25 39.444 42.7037 42.0867 40.2011L39.9676 38.0796C38.6155 36.7275 39.5742 34.4167 41.4844 34.4167H50.5974C52.5223 34.4167 54.0833 35.9777 54.0833 37.9051V47.0181C54.0833 48.9282 51.7725 49.8845 50.4204 48.5349Z" fill="#4EB0BD"/>
<path opacity="0.35" d="M46.7084 29.5C46.7084 24.9398 44.636 20.8639 41.3836 18.1573C40.7936 17.6656 40.1545 17.2305 39.4932 16.8371C39.4071 16.7855 39.3235 16.7314 39.235 16.6798C38.5959 16.316 37.9223 16.0037 37.229 15.7358C37.111 15.6891 36.9906 15.6473 36.8701 15.603C36.167 15.3548 35.4443 15.1532 34.697 15.013C34.5912 14.9934 34.4831 14.9811 34.3749 14.9639C33.5858 14.8336 32.7819 14.75 31.9584 14.75C23.8115 14.75 17.2084 21.3531 17.2084 29.5C17.2084 37.6469 23.8115 44.25 31.9584 44.25C32.4574 44.25 32.9491 44.223 33.4358 44.1762C33.6767 44.1517 33.9078 44.1074 34.1438 44.0705C34.3823 44.0361 34.6232 44.0091 34.8567 43.9624C35.1862 43.896 35.5057 43.8075 35.8253 43.7215C35.9581 43.6846 36.0933 43.6575 36.2211 43.6182C36.6022 43.5027 36.9758 43.3675 37.3421 43.22C37.4011 43.1978 37.4626 43.1782 37.5216 43.1536C37.9346 42.984 38.3402 42.7947 38.7335 42.5906C38.7409 42.5857 38.7507 42.5832 38.7581 42.5783C39.9775 41.9392 41.096 41.1377 42.0842 40.1987L39.9652 38.0771C38.6131 36.725 39.5718 34.4142 41.482 34.4142H45.848C46.3962 32.8777 46.7084 31.2257 46.7084 29.5Z" fill="#4EB0BD"/>
<path d="M36.875 27.0416H31.9583V22.125C31.9583 20.7655 30.857 19.6666 29.5 19.6666C28.143 19.6666 27.0416 20.7655 27.0416 22.125V29.5C27.0416 30.8594 28.143 31.9583 29.5 31.9583H36.875C38.232 31.9583 39.3333 30.8594 39.3333 29.5C39.3333 28.1405 38.232 27.0416 36.875 27.0416Z" fill="#4EB0BD"/>
</svg>
