<svg width="183" height="64" viewBox="0 0 183 64" fill="none" xmlns="http://www.w3.org/2000/svg">
<g clip-path="url(#clip0_25_167)">
<path d="M108.264 10.7235L91.484 25.701L74.7736 10.6812L36.2802 45.1258H55.2519C61.9958 45.1258 66.5746 41.4304 68.3847 39.8527C69.7971 38.6218 77.3393 31.861 80.5751 28.957C81.9661 28.957 83.0927 27.8373 83.0927 26.4581C83.0927 25.079 81.9661 23.9592 80.5724 23.9592C79.2509 23.9592 78.1696 24.9704 78.0628 26.2543C75.2008 28.822 67.9949 35.289 65.6428 37.4041C62.682 40.0671 58.6959 41.4727 55.7538 41.4727H45.8648L74.6882 15.6578L88.67 28.2079L71.0145 43.9372C71.0145 43.9372 80.3001 48.6121 91.4947 48.6121C102.689 48.6121 111.865 43.8737 111.865 43.8737L94.2366 28.1602L108.218 15.6551L137.199 41.5336H127.521C122.916 41.5336 119.378 39.2518 116.967 37.1023C115.074 35.4187 107.983 29.047 105.009 26.3734C104.967 25.0313 103.859 23.9566 102.494 23.9566C101.13 23.9566 99.974 25.0737 99.974 26.4555C99.974 27.8373 101.029 28.875 102.355 28.9464C104.686 31.0165 109.455 35.2599 114.188 39.5138C120.804 45.4567 126.37 45.1496 128.675 45.1496H146.715L108.264 10.7235ZM105.015 42.6957C105.015 42.6957 99.723 44.9352 91.4973 44.9352C83.2716 44.9352 77.9266 42.6957 77.9266 42.6957L91.4973 30.5559L105.015 42.6957Z" fill="white"/>
<path d="M82.4787 12.8598C82.492 14.2284 83.6133 15.3323 84.9963 15.3323C85.0844 15.3323 85.1725 15.327 85.258 15.319L85.274 15.3323L85.2873 15.3137C86.5421 15.1708 87.5166 14.1146 87.5166 12.8334C87.5166 12.611 87.4846 12.3966 87.4285 12.1927L91.4146 6.38756L95.8198 12.5819C95.8117 12.6639 95.8064 12.7486 95.8064 12.8334C95.8064 14.006 96.6207 14.9855 97.7207 15.2555L97.7741 15.3323L97.8248 15.282C97.9877 15.3137 98.1532 15.3323 98.324 15.3323C99.715 15.3323 100.844 14.2152 100.844 12.8334C100.844 11.5839 99.9179 10.5515 98.7112 10.3689L91.4973 0L84.1393 10.488C83.1702 10.8348 82.476 11.7533 82.476 12.836V12.8598H82.4787Z" fill="white"/>
<path d="M7.37938 62.1788V59.1266H1.71936V62.1788H0V54.5259H1.71936V57.6469H7.37938V54.5259H9.08806V62.1788H7.37938Z" fill="white"/>
<path d="M11.0023 55.7489C10.7914 55.7489 10.6419 55.7066 10.5565 55.6245C10.4684 55.5424 10.4256 55.4101 10.4256 55.2327V54.5815C10.4256 54.4015 10.4684 54.2718 10.5565 54.195C10.6419 54.1156 10.7914 54.0759 11.0023 54.0759H11.5576C11.7766 54.0759 11.9288 54.1156 12.0169 54.195C12.1023 54.2745 12.1477 54.4015 12.1477 54.5815V55.2327C12.1477 55.4127 12.105 55.5424 12.0169 55.6245C11.9288 55.7066 11.7766 55.7489 11.5576 55.7489H11.0023ZM10.4256 62.1788V56.2519H12.145V62.1788H10.4256Z" fill="white"/>
<path d="M13.7309 63.9974V62.6289H19.1186C19.3669 62.6289 19.5457 62.5812 19.6499 62.4833C19.7566 62.3853 19.8074 62.2185 19.8074 61.9777V61.4826H15.9602C15.4929 61.4826 15.0951 61.4456 14.7668 61.3715C14.4384 61.2973 14.1714 61.1782 13.9685 61.0167C13.7656 60.8553 13.6187 60.6461 13.528 60.3894C13.4372 60.13 13.3918 59.8176 13.3918 59.4523V58.5205C13.3918 58.0572 13.4318 57.6708 13.5093 57.3584C13.5894 57.0487 13.7282 56.7998 13.9284 56.6119C14.1287 56.4239 14.401 56.2916 14.7427 56.2122C15.0871 56.1328 15.517 56.0957 16.0376 56.0957H18.7768C19.2814 56.0957 19.7059 56.1407 20.0503 56.2307C20.3947 56.3207 20.6697 56.4637 20.8753 56.6569C21.0835 56.8528 21.2304 57.1016 21.3158 57.4087C21.4013 57.7158 21.4466 58.0864 21.4466 58.5205V62.0677C21.4466 62.748 21.2758 63.2403 20.9367 63.5448C20.5976 63.8465 20.0423 64.0001 19.2734 64.0001H13.7309V63.9974ZM19.8074 58.5549C19.8074 58.1499 19.7273 57.8772 19.5698 57.7369C19.4122 57.594 19.1239 57.5225 18.7101 57.5225H16.0616C15.6692 57.5225 15.4022 57.5966 15.258 57.7422C15.1138 57.8878 15.0417 58.1631 15.0417 58.5681V59.3649C15.0417 59.529 15.0578 59.6641 15.0925 59.7699C15.1272 59.8758 15.1832 59.9579 15.2633 60.0214C15.3434 60.0849 15.4476 60.1273 15.5757 60.1511C15.7039 60.1723 15.8667 60.1855 16.0616 60.1855H19.8074V58.5549Z" fill="white"/>
<path d="M29.0903 62.1787V58.7904C29.0903 58.5362 29.069 58.3271 29.0289 58.163C28.9862 57.9989 28.9168 57.8692 28.8207 57.7765C28.7219 57.6839 28.5857 57.6203 28.4122 57.5859C28.2387 57.5515 28.0224 57.5356 27.7661 57.5356H24.4048V62.1813H22.7175V54.134H24.4048V56.0982H27.8115C28.3855 56.0982 28.8634 56.1459 29.2425 56.2385C29.6243 56.3312 29.926 56.482 30.1529 56.6885C30.3798 56.895 30.54 57.165 30.6335 57.5012C30.7269 57.8374 30.775 58.2503 30.775 58.7348V62.1813H29.0903V62.1787Z" fill="white"/>
<path d="M33.7091 59.754V60.0346C33.7091 60.2226 33.7251 60.3708 33.7545 60.4846C33.7839 60.5958 33.8399 60.6858 33.9174 60.7493C33.9975 60.8129 34.1016 60.8552 34.2351 60.8791C34.3659 60.9002 34.5314 60.9135 34.7263 60.9135H40.0126V62.1814H34.7263C33.7518 62.1814 33.0577 61.9988 32.6439 61.6308C32.23 61.2655 32.0218 60.6779 32.0218 59.8678V58.4649C32.0218 58.0228 32.0645 57.6522 32.1526 57.3478C32.238 57.046 32.3902 56.8025 32.6065 56.6172C32.8227 56.4345 33.1057 56.3021 33.4608 56.2174C33.8159 56.1354 34.2644 56.093 34.8091 56.093H37.7752C38.2131 56.093 38.5762 56.1354 38.8672 56.2174C39.1582 56.2995 39.3878 56.4133 39.5587 56.5589C39.7296 56.7045 39.847 56.8819 39.9164 57.0857C39.9832 57.2922 40.0179 57.5145 40.0179 57.7528V59.7514H33.7091V59.754ZM38.3252 57.8931C38.3252 57.6919 38.2745 57.5569 38.173 57.4881C38.0716 57.4219 37.8927 57.3875 37.6364 57.3875H34.8304C34.6195 57.3875 34.4406 57.3981 34.2991 57.4166C34.155 57.4351 34.0402 57.4775 33.9547 57.5463C33.8666 57.6125 33.8052 57.7104 33.7679 57.8375C33.7305 57.9646 33.7118 58.1366 33.7118 58.3537V58.6793H38.3306V57.8931H38.3252Z" fill="white"/>
<path d="M41.1793 62.1788V58.6555C41.1793 58.2002 41.2327 57.8111 41.3368 57.4881C41.4436 57.1651 41.6091 56.9031 41.8414 56.6966C42.071 56.4901 42.3673 56.3392 42.7304 56.2413C43.0935 56.1434 43.534 56.0957 44.0547 56.0957H45.1519V57.4537H44.1C43.8651 57.4537 43.6702 57.4722 43.5127 57.5093C43.3552 57.5463 43.227 57.6099 43.1336 57.6999C43.0401 57.7899 42.9707 57.9143 42.9307 58.0705C42.8879 58.2267 42.8693 58.4252 42.8693 58.6661V62.1788H41.1793Z" fill="white"/>
<path d="M53.5378 62.1788C52.9718 62.1788 52.4993 62.1311 52.1228 62.0385C51.7464 61.9458 51.4447 61.7949 51.2178 61.5885C50.9908 61.382 50.8306 61.1146 50.7372 60.7811C50.6438 60.4475 50.5957 60.0399 50.5957 59.5528V57.1518C50.5957 56.6727 50.6438 56.2651 50.7372 55.9289C50.8306 55.5927 50.9908 55.32 51.2178 55.1162C51.4447 54.9097 51.7464 54.7615 52.1228 54.6662C52.4993 54.5735 52.9718 54.5259 53.5378 54.5259H58.9255V55.9739H53.5378C53.2896 55.9739 53.084 55.995 52.9265 56.0348C52.7689 56.0771 52.6408 56.1406 52.5473 56.2306C52.4539 56.3206 52.3898 56.4398 52.3551 56.5907C52.3204 56.7415 52.3044 56.9268 52.3044 57.1518V57.668H58.8801V59.026H52.3044V59.5634C52.3044 59.7963 52.3204 59.9869 52.3551 60.1352C52.3898 60.2861 52.4512 60.4052 52.542 60.4952C52.6328 60.5852 52.7583 60.6461 52.9211 60.6805C53.084 60.7149 53.2896 60.7308 53.5378 60.7308H58.9255V62.1788H53.5378Z" fill="white"/>
<path d="M60.0362 62.1787V54.1313H61.7556V62.1787H60.0362Z" fill="white"/>
<path d="M64.7217 59.754V60.0346C64.7217 60.2226 64.7377 60.3708 64.7671 60.4846C64.7965 60.5958 64.8525 60.6858 64.93 60.7493C65.0101 60.8129 65.1142 60.8552 65.2477 60.8791C65.3785 60.9002 65.544 60.9135 65.7389 60.9135H71.0252V62.1814H65.7389C64.7644 62.1814 64.0703 61.9988 63.6565 61.6308C63.2426 61.2655 63.0344 60.6779 63.0344 59.8678V58.4649C63.0344 58.0228 63.0771 57.6522 63.1652 57.3478C63.2506 57.046 63.4028 56.8025 63.6191 56.6172C63.8353 56.4345 64.1183 56.3021 64.4734 56.2174C64.8285 56.1354 65.277 56.093 65.8217 56.093H68.7878C69.2257 56.093 69.5888 56.1354 69.8798 56.2174C70.1708 56.2995 70.4004 56.4133 70.5713 56.5589C70.7422 56.7045 70.8596 56.8819 70.929 57.0857C70.9958 57.2922 71.0305 57.5145 71.0305 57.7528V59.7514H64.7217V59.754ZM69.3405 57.8931C69.3405 57.6919 69.2898 57.5569 69.1883 57.4881C69.0869 57.4219 68.908 57.3875 68.6517 57.3875H65.8457C65.6348 57.3875 65.4559 57.3981 65.3144 57.4166C65.1702 57.4351 65.0554 57.4775 64.97 57.5463C64.8819 57.6125 64.8205 57.7104 64.7831 57.8375C64.7457 57.9646 64.7271 58.1366 64.7271 58.3537V58.6793H69.3458V57.8931H69.3405Z" fill="white"/>
<path d="M77.6036 61.7765C77.4754 61.9486 77.3259 62.0862 77.1577 62.1921C76.9869 62.298 76.7519 62.3483 76.4502 62.3483C76.1325 62.3483 75.8922 62.2954 75.7267 62.1921C75.5612 62.0862 75.4143 61.9486 75.2862 61.7765L71.2441 56.0984H73.2598L76.4743 60.7547L79.654 56.0984H81.6457L77.6036 61.7765Z" fill="white"/>
<path d="M83.026 62.1789C82.5801 62.1789 82.2144 62.1418 81.9287 62.0677C81.643 61.9936 81.4134 61.8877 81.2452 61.7474C81.0744 61.6097 80.9569 61.4403 80.8875 61.2418C80.8207 61.0433 80.786 60.8209 80.786 60.5747V60.0029C80.786 59.7488 80.8181 59.5211 80.8821 59.3253C80.9462 59.1267 81.0583 58.96 81.2159 58.8197C81.3734 58.682 81.5923 58.5761 81.8673 58.5046C82.1423 58.4332 82.492 58.3988 82.9139 58.3988H87.4525V58.2638C87.4525 57.8746 87.3725 57.6152 87.2149 57.4828C87.0574 57.3531 86.7878 57.287 86.4113 57.287H81.4054L82.1743 56.0984H86.4086C86.8999 56.0984 87.3164 56.1434 87.6581 56.2334C88.0025 56.3234 88.2829 56.461 88.5018 56.6437C88.7207 56.8264 88.8809 57.0593 88.9824 57.3399C89.0838 57.6205 89.1345 57.9567 89.1345 58.3432V59.8256C89.1345 60.2676 89.0918 60.6382 89.0037 60.9374C88.9156 61.2365 88.7661 61.48 88.5498 61.668C88.3336 61.8559 88.0479 61.9883 87.6902 62.0677C87.3324 62.1471 86.8812 62.1868 86.3366 62.1868H83.026V62.1789ZM87.4499 59.4311H83.0927C82.8952 59.4311 82.743 59.4735 82.6282 59.5609C82.5161 59.6482 82.4573 59.8097 82.4573 60.0479V60.4635C82.4573 60.6806 82.5187 60.8315 82.6389 60.9135C82.759 60.9956 82.9299 61.038 83.1488 61.038H86.3179C86.5128 61.038 86.6836 61.0221 86.8278 60.993C86.972 60.9638 87.0895 60.9083 87.1776 60.8315C87.2683 60.7521 87.3351 60.6435 87.3805 60.5006C87.4259 60.3576 87.4472 60.175 87.4472 59.95V59.4311H87.4499Z" fill="white"/>
<path d="M90.7658 62.1788V57.4537H89.9061V56.0957H90.7658V54.3777H92.4852V56.0957H94.4208V57.4537H92.4852V62.1788H90.7658Z" fill="white"/>
<path d="M95.8144 55.7489C95.6035 55.7489 95.454 55.7066 95.3686 55.6245C95.2804 55.5424 95.2377 55.4101 95.2377 55.2327V54.5815C95.2377 54.4015 95.2804 54.2718 95.3686 54.195C95.454 54.1156 95.6035 54.0759 95.8144 54.0759H96.3697C96.5887 54.0759 96.7408 54.1156 96.8289 54.195C96.9144 54.2745 96.9598 54.4015 96.9598 54.5815V55.2327C96.9598 55.4127 96.917 55.5424 96.8289 55.6245C96.7408 55.7066 96.5887 55.7489 96.3697 55.7489H95.8144ZM95.2377 62.1788V56.2519H96.9571V62.1788H95.2377Z" fill="white"/>
<path d="M101.181 62.1789C100.615 62.1789 100.142 62.1312 99.7658 62.0386C99.3893 61.9459 99.0876 61.795 98.8607 61.5886C98.6338 61.3821 98.4736 61.1147 98.3801 60.7812C98.2867 60.4476 98.2386 60.04 98.2386 59.5529V58.7349C98.2386 58.2479 98.2867 57.8376 98.3801 57.5014C98.4736 57.1652 98.6338 56.8925 98.8607 56.6887C99.0876 56.4822 99.3893 56.334 99.7658 56.2387C100.142 56.146 100.615 56.0984 101.181 56.0984H103.229C103.803 56.0984 104.278 56.146 104.654 56.2387C105.031 56.3313 105.332 56.4849 105.559 56.694C105.786 56.9031 105.946 57.1758 106.04 57.512C106.133 57.8481 106.181 58.2611 106.181 58.7455V59.5529C106.181 60.04 106.133 60.4503 106.04 60.7812C105.946 61.1147 105.786 61.3847 105.559 61.5886C105.332 61.795 105.031 61.9433 104.654 62.0386C104.278 62.1312 103.803 62.1789 103.229 62.1789H101.181ZM104.497 58.7905C104.497 58.5364 104.475 58.3273 104.435 58.1632C104.393 57.999 104.318 57.8693 104.208 57.7767C104.099 57.684 103.947 57.6205 103.749 57.5861C103.552 57.5517 103.303 57.5358 103.002 57.5358H101.405C101.103 57.5358 100.855 57.5517 100.663 57.5861C100.471 57.6205 100.318 57.684 100.209 57.7767C100.099 57.8693 100.025 57.999 99.982 58.1632C99.9393 58.3273 99.9206 58.5364 99.9206 58.7905V59.5079C99.9206 59.762 99.942 59.9712 99.982 60.13C100.022 60.2915 100.099 60.4185 100.209 60.5112C100.318 60.6038 100.471 60.67 100.663 60.7071C100.855 60.7441 101.103 60.7627 101.405 60.7627H103.002C103.303 60.7627 103.552 60.7441 103.749 60.7071C103.944 60.67 104.099 60.6038 104.208 60.5112C104.318 60.4185 104.393 60.2915 104.435 60.13C104.475 59.9685 104.497 59.762 104.497 59.5079V58.7905Z" fill="white"/>
<path d="M113.689 62.1789V58.7905C113.689 58.5364 113.667 58.3299 113.627 58.1685C113.585 58.007 113.515 57.8799 113.411 57.7873C113.31 57.6946 113.171 57.6284 112.992 57.5914C112.816 57.5543 112.589 57.5358 112.319 57.5358H110.485C110.221 57.5358 109.999 57.5543 109.823 57.5914C109.647 57.6284 109.505 57.6946 109.398 57.7873C109.292 57.8799 109.22 58.007 109.177 58.1685C109.134 58.3299 109.115 58.5364 109.115 58.7905V62.1789H107.428V58.7349C107.428 58.2479 107.476 57.8376 107.57 57.5014C107.663 57.1652 107.823 56.8925 108.05 56.6887C108.277 56.4822 108.579 56.334 108.955 56.2387C109.332 56.146 109.804 56.0984 110.37 56.0984H112.418C112.992 56.0984 113.467 56.146 113.844 56.2387C114.22 56.3313 114.522 56.4822 114.749 56.6887C114.976 56.8952 115.136 57.1652 115.229 57.5014C115.323 57.8376 115.371 58.2505 115.371 58.7349V62.1815H113.689V62.1789Z" fill="white"/>
<path d="M120.943 62.1788V60.7308H126.806C127.115 60.7308 127.337 60.6884 127.473 60.6011C127.609 60.5164 127.676 60.3417 127.676 60.0796V59.664C127.676 59.4257 127.609 59.2537 127.473 59.1531C127.337 59.0525 127.118 59.0022 126.816 59.0022H123.137C122.707 59.0022 122.35 58.9625 122.067 58.8857C121.784 58.8063 121.559 58.6872 121.394 58.5257C121.228 58.3642 121.114 58.1631 121.05 57.9195C120.985 57.676 120.953 57.3901 120.953 57.0618V56.6807C120.953 56.2915 120.993 55.958 121.079 55.6827C121.162 55.4047 121.29 55.1824 121.463 55.0156C121.637 54.8462 121.864 54.7244 122.141 54.645C122.422 54.5656 122.753 54.5259 123.137 54.5259H129.249V55.9739H123.295C123.031 55.9739 122.836 56.0242 122.713 56.1248C122.587 56.2253 122.526 56.4292 122.526 56.7362V56.9824C122.526 57.2207 122.582 57.3927 122.697 57.4933C122.809 57.5939 123.007 57.6442 123.284 57.6442H126.894C127.324 57.6442 127.687 57.6786 127.986 57.7501C128.285 57.8216 128.528 57.9354 128.715 58.0916C128.904 58.2478 129.04 58.4516 129.123 58.6978C129.206 58.944 129.249 59.2404 129.249 59.5846V60.1908C129.249 60.5508 129.206 60.8552 129.123 61.1067C129.04 61.3582 128.904 61.562 128.715 61.7182C128.525 61.8744 128.282 61.9908 127.986 62.0649C127.687 62.1391 127.324 62.1761 126.894 62.1761H120.943V62.1788Z" fill="white"/>
<path d="M133.213 62.1789C132.647 62.1789 132.175 62.1312 131.798 62.0386C131.422 61.9459 131.12 61.795 130.893 61.5886C130.666 61.3821 130.506 61.1147 130.413 60.7812C130.319 60.4476 130.271 60.04 130.271 59.5529V58.7349C130.271 58.2479 130.319 57.8376 130.413 57.5014C130.506 57.1652 130.666 56.8925 130.893 56.6887C131.12 56.4822 131.422 56.334 131.798 56.2387C132.175 56.146 132.647 56.0984 133.213 56.0984H135.261C135.835 56.0984 136.31 56.146 136.687 56.2387C137.063 56.3313 137.365 56.4849 137.592 56.694C137.819 56.9031 137.979 57.1758 138.072 57.512C138.166 57.8481 138.214 58.2611 138.214 58.7455V59.5529C138.214 60.04 138.166 60.4503 138.072 60.7812C137.979 61.1147 137.819 61.3847 137.592 61.5886C137.365 61.795 137.063 61.9433 136.687 62.0386C136.31 62.1312 135.835 62.1789 135.261 62.1789H133.213ZM136.529 58.7905C136.529 58.5364 136.508 58.3273 136.468 58.1632C136.425 57.999 136.35 57.8693 136.241 57.7767C136.131 57.684 135.979 57.6205 135.782 57.5861C135.584 57.5517 135.336 57.5358 135.034 57.5358H133.438C133.136 57.5358 132.888 57.5517 132.695 57.5861C132.503 57.6205 132.351 57.684 132.241 57.7767C132.132 57.8693 132.057 57.999 132.015 58.1632C131.972 58.3273 131.953 58.5364 131.953 58.7905V59.5079C131.953 59.762 131.974 59.9712 132.015 60.13C132.055 60.2915 132.132 60.4185 132.241 60.5112C132.351 60.6038 132.503 60.67 132.695 60.7071C132.888 60.7441 133.136 60.7627 133.438 60.7627H135.034C135.336 60.7627 135.584 60.7441 135.782 60.7071C135.977 60.67 136.131 60.6038 136.241 60.5112C136.35 60.4185 136.425 60.2915 136.468 60.13C136.508 59.9685 136.529 59.762 136.529 59.5079V58.7905Z" fill="white"/>
<path d="M139.495 62.1787V55.7699C139.495 55.1558 139.658 54.7296 139.981 54.4914C140.307 54.2531 140.801 54.1313 141.463 54.1313H143.42V55.3199H141.722C141.511 55.3199 141.367 55.3543 141.292 55.4258C141.217 55.4973 141.18 55.6296 141.18 55.8255V56.0955H143.409V57.4535H141.18V62.1787H139.495Z" fill="white"/>
<path d="M144.747 62.1788V57.4537H143.887V56.0957H144.747V54.3777H146.466V56.0957H148.402V57.4537H146.466V62.1788H144.747Z" fill="white"/>
<path d="M154.788 57.9937L152.965 61.742C152.874 61.93 152.751 62.0782 152.596 62.1841C152.441 62.2927 152.252 62.3456 152.025 62.3456C151.768 62.3456 151.574 62.29 151.443 62.1841C151.312 62.0756 151.202 61.9273 151.12 61.742L148.663 56.0957H150.372L152.137 60.1908L153.891 56.5536C153.998 56.3525 154.115 56.1963 154.249 56.0877C154.38 55.9792 154.572 55.9263 154.82 55.9263C155.068 55.9263 155.25 55.9766 155.386 56.0772C155.522 56.1777 155.64 56.3366 155.736 56.5536L157.399 60.1908L159.255 56.0957H160.929L158.36 61.742C158.277 61.9141 158.157 62.0571 158.002 62.1735C157.848 62.29 157.658 62.3482 157.431 62.3482C157.204 62.3482 157.025 62.29 156.87 62.1735C156.716 62.0571 156.598 61.9141 156.513 61.742L154.788 57.9937Z" fill="white"/>
<path d="M162.915 62.1789C162.469 62.1789 162.103 62.1418 161.818 62.0677C161.532 61.9936 161.302 61.8877 161.134 61.7474C160.963 61.6097 160.846 61.4403 160.776 61.2418C160.71 61.0433 160.675 60.8209 160.675 60.5747V60.0029C160.675 59.7488 160.707 59.5211 160.771 59.3253C160.835 59.1267 160.947 58.96 161.105 58.8197C161.262 58.682 161.481 58.5761 161.756 58.5046C162.031 58.4332 162.381 58.3988 162.803 58.3988H167.342V58.2638C167.342 57.8746 167.261 57.6152 167.104 57.4828C166.946 57.3531 166.677 57.287 166.3 57.287H160.934L161.441 56.0984H166.298C166.789 56.0984 167.205 56.1434 167.547 56.2334C167.892 56.3234 168.172 56.461 168.391 56.6437C168.61 56.8264 168.77 57.0593 168.871 57.3399C168.973 57.6205 169.024 57.9567 169.024 58.3432V59.8256C169.024 60.2676 168.981 60.6382 168.893 60.9374C168.805 61.2365 168.655 61.48 168.439 61.668C168.223 61.8559 167.937 61.9883 167.579 62.0677C167.221 62.1471 166.77 62.1868 166.226 62.1868H162.915V62.1789ZM167.342 59.4311H162.984C162.787 59.4311 162.635 59.4735 162.52 59.5609C162.408 59.6482 162.349 59.8097 162.349 60.0479V60.4635C162.349 60.6806 162.41 60.8315 162.531 60.9135C162.651 60.9956 162.822 61.038 163.04 61.038H166.21C166.404 61.038 166.575 61.0221 166.719 60.993C166.864 60.9638 166.981 60.9083 167.069 60.8315C167.16 60.7521 167.227 60.6435 167.272 60.5006C167.318 60.3576 167.339 60.175 167.339 59.95V59.4311H167.342Z" fill="white"/>
<path d="M170.249 62.1788V58.6555C170.249 58.2002 170.302 57.8111 170.406 57.4881C170.513 57.1651 170.679 56.9031 170.911 56.6966C171.141 56.4901 171.437 56.3392 171.8 56.2413C172.163 56.1434 172.604 56.0957 173.124 56.0957H174.222V57.4537H173.17C172.935 57.4537 172.74 57.4722 172.582 57.5093C172.425 57.5463 172.297 57.6099 172.203 57.6999C172.11 57.7899 172.04 57.9143 172 58.0705C171.958 58.2267 171.939 58.4252 171.939 58.6661V62.1788H170.249Z" fill="white"/>
<path d="M176.691 59.754V60.0346C176.691 60.2226 176.707 60.3708 176.737 60.4846C176.766 60.5958 176.822 60.6858 176.899 60.7493C176.98 60.8129 177.084 60.8552 177.217 60.8791C177.348 60.9002 177.514 60.9135 177.708 60.9135H182.995V62.1814H177.708C176.734 62.1814 176.04 61.9988 175.626 61.6308C175.212 61.2655 175.004 60.6779 175.004 59.8678V58.4649C175.004 58.0228 175.047 57.6522 175.135 57.3478C175.22 57.046 175.372 56.8025 175.589 56.6172C175.805 56.4345 176.088 56.3021 176.443 56.2174C176.798 56.1354 177.247 56.093 177.791 56.093H180.757C181.195 56.093 181.558 56.1354 181.849 56.2174C182.14 56.2995 182.37 56.4133 182.541 56.5589C182.712 56.7045 182.829 56.8819 182.899 57.0857C182.965 57.2922 183 57.5145 183 57.7528V59.7514H176.691V59.754ZM181.307 57.8931C181.307 57.6919 181.257 57.5569 181.155 57.4881C181.054 57.4219 180.875 57.3875 180.619 57.3875H177.813C177.602 57.3875 177.423 57.3981 177.281 57.4166C177.137 57.4351 177.022 57.4775 176.937 57.5463C176.849 57.6125 176.787 57.7104 176.75 57.8375C176.713 57.9646 176.694 58.1366 176.694 58.3537V58.6793H181.313V57.8931H181.307Z" fill="white"/>
</g>
<defs>
<clipPath id="clip0_25_167">
<rect width="183" height="64" fill="white"/>
</clipPath>
</defs>
</svg>
