<svg width="155" height="54" viewBox="0 0 155 54" fill="none" xmlns="http://www.w3.org/2000/svg">
<g clip-path="url(#clip0_25_2)">
<path d="M91.6988 9.04802L77.4864 21.6853L63.3328 9.01228L30.7291 38.0749H46.798C52.5101 38.0749 56.3883 34.9569 57.9215 33.6258C59.1177 32.5872 65.506 26.8827 68.2467 24.4326C69.4248 24.4326 70.3791 23.4878 70.3791 22.3241C70.3791 21.1604 69.4248 20.2157 68.2444 20.2157C67.1251 20.2157 66.2092 21.0689 66.1188 22.1521C63.6946 24.3186 57.5913 29.7752 55.5991 31.5597C53.0913 33.8067 49.7151 34.9927 47.2232 34.9927H38.8472L63.2605 13.2113L75.103 23.8005L60.1489 37.0721C60.1489 37.0721 68.0138 41.0165 77.4955 41.0165C86.9772 41.0165 94.7494 37.0185 94.7494 37.0185L79.8179 23.7603L91.6604 13.2091L116.207 35.044H108.01C104.109 35.044 101.113 33.1187 99.0707 31.3051C97.4675 29.8846 91.4614 24.5085 88.9423 22.2526C88.9061 21.1202 87.9677 20.2134 86.8121 20.2134C85.6566 20.2134 84.6774 21.156 84.6774 22.3219C84.6774 23.4878 85.5707 24.3633 86.6945 24.4236C88.6687 26.1702 92.7074 29.7506 96.7167 33.3399C102.32 38.3541 107.035 38.095 108.987 38.095H124.266L91.6988 9.04802ZM88.9468 36.0246C88.9468 36.0246 84.4649 37.9141 77.4977 37.9141C70.5306 37.9141 66.0034 36.0246 66.0034 36.0246L77.4977 25.7816L88.9468 36.0246Z" fill="black"/>
<path d="M69.859 10.8505C69.8703 12.0052 70.8201 12.9366 71.9914 12.9366C72.0661 12.9366 72.1407 12.9321 72.213 12.9254L72.2266 12.9366L72.2379 12.921C73.3007 12.8003 74.1261 11.9092 74.1261 10.8281C74.1261 10.6405 74.099 10.4596 74.0515 10.2876L77.4276 5.3895L81.1588 10.616C81.152 10.6852 81.1475 10.7567 81.1475 10.8281C81.1475 11.8176 81.8372 12.644 82.7689 12.8718L82.8141 12.9366L82.8571 12.8942C82.995 12.921 83.1352 12.9366 83.28 12.9366C84.4581 12.9366 85.4146 11.994 85.4146 10.8281C85.4146 9.77392 84.63 8.90284 83.6078 8.74873L77.4977 0L71.2655 8.84924C70.4447 9.14183 69.8568 9.91686 69.8568 10.8304V10.8505H69.859Z" fill="black"/>
<path d="M6.25029 52.4633V49.8881H1.45629V52.4633H0V46.0062H1.45629V48.6395H6.25029V46.0062H7.69754V52.4633H6.25029Z" fill="black"/>
<path d="M9.3189 47.0381C9.14026 47.0381 9.01363 47.0024 8.94126 46.9331C8.86664 46.8639 8.83046 46.7522 8.83046 46.6026V46.0531C8.83046 45.9012 8.86664 45.7918 8.94126 45.727C9.01363 45.66 9.14026 45.6265 9.3189 45.6265H9.78926C9.97469 45.6265 10.1036 45.66 10.1782 45.727C10.2506 45.794 10.289 45.9012 10.289 46.0531V46.6026C10.289 46.7544 10.2528 46.8639 10.1782 46.9331C10.1036 47.0024 9.97469 47.0381 9.78926 47.0381H9.3189ZM8.83046 52.4633V47.4625H10.2868V52.4633H8.83046Z" fill="black"/>
<path d="M11.63 53.9978V52.843H16.1933C16.4036 52.843 16.5551 52.8028 16.6433 52.7202C16.7338 52.6375 16.7767 52.4968 16.7767 52.2936V51.8759H13.5182C13.1224 51.8759 12.7855 51.8446 12.5074 51.7821C12.2292 51.7196 12.0031 51.6191 11.8312 51.4828C11.6594 51.3466 11.535 51.1701 11.4581 50.9535C11.3812 50.7346 11.3428 50.471 11.3428 50.1628V49.3766C11.3428 48.9857 11.3767 48.6596 11.4423 48.3961C11.5101 48.1348 11.6277 47.9248 11.7973 47.7662C11.9669 47.6076 12.1976 47.496 12.487 47.429C12.7787 47.362 13.1428 47.3307 13.5838 47.3307H15.9039C16.3313 47.3307 16.6908 47.3687 16.9825 47.4446C17.2742 47.5205 17.5072 47.6411 17.6813 47.8042C17.8577 47.9695 17.982 48.1794 18.0544 48.4385C18.1268 48.6976 18.1652 49.0103 18.1652 49.3766V52.3695C18.1652 52.9435 18.0205 53.359 17.7333 53.6158C17.4461 53.8705 16.9757 54 16.3245 54H11.63V53.9978ZM16.7767 49.4056C16.7767 49.0639 16.7089 48.8338 16.5755 48.7155C16.4421 48.5949 16.1978 48.5346 15.8473 48.5346H13.6041C13.2717 48.5346 13.0456 48.5971 12.9235 48.7199C12.8013 48.8428 12.7403 49.0751 12.7403 49.4168V50.0891C12.7403 50.2276 12.7539 50.3415 12.7833 50.4308C12.8126 50.5202 12.8601 50.5894 12.928 50.643C12.9958 50.6966 13.084 50.7323 13.1925 50.7524C13.3011 50.7703 13.439 50.7815 13.6041 50.7815H16.7767V49.4056Z" fill="black"/>
<path d="M24.6394 52.4633V49.6044C24.6394 49.39 24.6213 49.2135 24.5873 49.0751C24.5512 48.9366 24.4924 48.8271 24.411 48.749C24.3273 48.6708 24.212 48.6172 24.065 48.5882C23.918 48.5591 23.7348 48.5457 23.5177 48.5457H20.6707V52.4656H19.2416V45.6756H20.6707V47.3329H23.5562C24.0424 47.3329 24.4471 47.3731 24.7682 47.4513C25.0916 47.5295 25.3471 47.6568 25.5394 47.831C25.7316 48.0052 25.8672 48.233 25.9464 48.5167C26.0255 48.8003 26.0662 49.1488 26.0662 49.5575V52.4656H24.6394V52.4633Z" fill="black"/>
<path d="M28.5514 50.4174V50.6542C28.5514 50.8128 28.565 50.9378 28.5899 51.0339C28.6148 51.1277 28.6622 51.2036 28.7278 51.2572C28.7957 51.3108 28.8839 51.3466 28.9969 51.3667C29.1077 51.3845 29.2479 51.3957 29.413 51.3957H33.8904V52.4656H29.413C28.5876 52.4656 27.9997 52.3115 27.6492 52.001C27.2987 51.6928 27.1223 51.1969 27.1223 50.5135V49.3297C27.1223 48.9567 27.1585 48.644 27.2331 48.3871C27.3055 48.1325 27.4343 47.927 27.6175 47.7707C27.8007 47.6166 28.0404 47.5049 28.3411 47.4334C28.6419 47.3642 29.0218 47.3284 29.4831 47.3284H31.9954C32.3663 47.3284 32.6738 47.3642 32.9203 47.4334C33.1668 47.5027 33.3613 47.5987 33.506 47.7216C33.6507 47.8444 33.7502 47.994 33.809 48.166C33.8655 48.3402 33.8949 48.5279 33.8949 48.7289V50.4152H28.5514V50.4174ZM32.4613 48.8472C32.4613 48.6775 32.4183 48.5636 32.3324 48.5055C32.2464 48.4497 32.0949 48.4206 31.8778 48.4206H29.5012C29.3226 48.4206 29.171 48.4296 29.0512 48.4452C28.9291 48.4608 28.8318 48.4966 28.7595 48.5547C28.6849 48.6105 28.6328 48.6931 28.6012 48.8003C28.5695 48.9076 28.5537 49.0527 28.5537 49.2359V49.5106H32.4658V48.8472H32.4613Z" fill="black"/>
<path d="M34.8786 52.4633V49.4905C34.8786 49.1063 34.9239 48.778 35.012 48.5055C35.1025 48.233 35.2427 48.0119 35.4394 47.8377C35.6339 47.6635 35.8849 47.5362 36.1925 47.4535C36.5 47.3709 36.8731 47.3307 37.3141 47.3307H38.2435V48.4765H37.3525C37.1535 48.4765 36.9884 48.4921 36.855 48.5234C36.7216 48.5547 36.6131 48.6083 36.5339 48.6842C36.4548 48.7601 36.396 48.8651 36.3621 48.9969C36.3259 49.1287 36.31 49.2962 36.31 49.4994V52.4633H34.8786Z" fill="black"/>
<path d="M45.3463 52.4633C44.8669 52.4633 44.4666 52.4231 44.1478 52.345C43.8289 52.2668 43.5734 52.1395 43.3812 51.9653C43.189 51.791 43.0533 51.5655 42.9742 51.284C42.895 51.0026 42.8543 50.6586 42.8543 50.2477V48.2219C42.8543 47.8176 42.895 47.4736 42.9742 47.19C43.0533 46.9063 43.189 46.6763 43.3812 46.5043C43.5734 46.3301 43.8289 46.205 44.1478 46.1246C44.4666 46.0464 44.8669 46.0062 45.3463 46.0062H49.9096V47.2279H45.3463C45.136 47.2279 44.9619 47.2458 44.8284 47.2793C44.695 47.315 44.5865 47.3687 44.5073 47.4446C44.4282 47.5205 44.3739 47.621 44.3445 47.7484C44.3151 47.8757 44.3016 48.032 44.3016 48.2219V48.6574H49.8712V49.8032H44.3016V50.2566C44.3016 50.4532 44.3151 50.614 44.3445 50.739C44.3739 50.8664 44.4259 50.9669 44.5028 51.0428C44.5797 51.1187 44.686 51.1701 44.8239 51.1992C44.9619 51.2282 45.136 51.2416 45.3463 51.2416H49.9096V52.4633H45.3463Z" fill="black"/>
<path d="M50.8503 52.4633V45.6734H52.3066V52.4633H50.8503Z" fill="black"/>
<path d="M54.819 50.4174V50.6542C54.819 50.8128 54.8325 50.9378 54.8574 51.0339C54.8823 51.1277 54.9298 51.2036 54.9953 51.2572C55.0632 51.3108 55.1514 51.3466 55.2644 51.3667C55.3752 51.3845 55.5154 51.3957 55.6805 51.3957H60.1579V52.4656H55.6805C54.8551 52.4656 54.2672 52.3115 53.9167 52.001C53.5662 51.6928 53.3898 51.1969 53.3898 50.5135V49.3297C53.3898 48.9567 53.426 48.644 53.5006 48.3871C53.573 48.1325 53.7019 47.927 53.885 47.7707C54.0682 47.6166 54.3079 47.5049 54.6087 47.4334C54.9094 47.3642 55.2893 47.3284 55.7506 47.3284H58.2629C58.6338 47.3284 58.9413 47.3642 59.1878 47.4334C59.4343 47.5027 59.6288 47.5987 59.7735 47.7216C59.9182 47.8444 60.0177 47.994 60.0765 48.166C60.1331 48.3402 60.1625 48.5279 60.1625 48.7289V50.4152H54.819V50.4174ZM58.731 48.8472C58.731 48.6775 58.6881 48.5636 58.6021 48.5055C58.5162 48.4497 58.3647 48.4206 58.1476 48.4206H55.771C55.5923 48.4206 55.4408 48.4296 55.321 48.4452C55.1989 48.4608 55.1016 48.4966 55.0293 48.5547C54.9546 48.6105 54.9026 48.6931 54.871 48.8003C54.8393 48.9076 54.8235 49.0527 54.8235 49.2359V49.5106H58.7356V48.8472H58.731Z" fill="black"/>
<path d="M65.7298 52.1238C65.6213 52.269 65.4946 52.3852 65.3522 52.4745C65.2075 52.5638 65.0085 52.6063 64.7529 52.6063C64.4838 52.6063 64.2803 52.5616 64.1401 52.4745C63.9999 52.3852 63.8755 52.269 63.767 52.1238L60.3434 47.3329H62.0506L64.7733 51.2617L67.4665 47.3329H69.1535L65.7298 52.1238Z" fill="black"/>
<path d="M70.3226 52.4633C69.9449 52.4633 69.6351 52.4321 69.3932 52.3695C69.1512 52.307 68.9567 52.2176 68.8143 52.0993C68.6695 51.9831 68.57 51.8402 68.5113 51.6727C68.4547 51.5052 68.4253 51.3175 68.4253 51.1098V50.6274C68.4253 50.413 68.4525 50.2209 68.5067 50.0556C68.561 49.8881 68.656 49.7474 68.7894 49.629C68.9228 49.5128 69.1082 49.4235 69.3412 49.3632C69.5741 49.3029 69.8703 49.2739 70.2276 49.2739H74.0718V49.1599C74.0718 48.8316 74.004 48.6127 73.8706 48.5011C73.7372 48.3916 73.5088 48.3358 73.1899 48.3358H68.95L69.6012 47.3329H73.1877C73.6037 47.3329 73.9565 47.3709 74.246 47.4468C74.5377 47.5228 74.7751 47.6389 74.9605 47.793C75.146 47.9471 75.2817 48.1437 75.3676 48.3804C75.4535 48.6172 75.4965 48.9009 75.4965 49.227V50.4777C75.4965 50.8507 75.4603 51.1634 75.3857 51.4158C75.311 51.6682 75.1844 51.8737 75.0012 52.0323C74.8181 52.1908 74.5761 52.3025 74.2731 52.3695C73.9701 52.4365 73.5879 52.47 73.1266 52.47H70.3226V52.4633ZM74.0696 50.1449H70.3791C70.2118 50.1449 70.0829 50.1807 69.9856 50.2544C69.8907 50.3281 69.8409 50.4643 69.8409 50.6653V51.016C69.8409 51.1992 69.8929 51.3265 69.9947 51.3957C70.0964 51.4649 70.2412 51.5007 70.4266 51.5007H73.1108C73.2759 51.5007 73.4206 51.4873 73.5427 51.4627C73.6648 51.4381 73.7643 51.3912 73.8389 51.3265C73.9158 51.2595 73.9723 51.1679 74.0108 51.0473C74.0492 50.9267 74.0673 50.7726 74.0673 50.5827V50.1449H74.0696Z" fill="black"/>
<path d="M76.8781 52.4633V48.4765H76.15V47.3307H76.8781V45.8811H78.3344V47.3307H79.9739V48.4765H78.3344V52.4633H76.8781Z" fill="black"/>
<path d="M81.1543 47.0381C80.9756 47.0381 80.849 47.0024 80.7766 46.9331C80.702 46.8639 80.6658 46.7522 80.6658 46.6026V46.0531C80.6658 45.9012 80.702 45.7918 80.7766 45.727C80.849 45.66 80.9756 45.6265 81.1543 45.6265H81.6246C81.8101 45.6265 81.939 45.66 82.0136 45.727C82.0859 45.794 82.1244 45.9012 82.1244 46.0531V46.6026C82.1244 46.7544 82.0882 46.8639 82.0136 46.9331C81.939 47.0024 81.8101 47.0381 81.6246 47.0381H81.1543ZM80.6658 52.4633V47.4625H82.1221V52.4633H80.6658Z" fill="black"/>
<path d="M85.6996 52.4633C85.2202 52.4633 84.8199 52.4231 84.5011 52.345C84.1822 52.2668 83.9267 52.1395 83.7345 51.9653C83.5423 51.791 83.4066 51.5655 83.3274 51.284C83.2483 51.0026 83.2076 50.6586 83.2076 50.2477V49.5575C83.2076 49.1465 83.2483 48.8003 83.3274 48.5167C83.4066 48.233 83.5423 48.003 83.7345 47.831C83.9267 47.6568 84.1822 47.5317 84.5011 47.4513C84.8199 47.3731 85.2202 47.3329 85.6996 47.3329H87.434C87.9202 47.3329 88.3227 47.3731 88.6415 47.4513C88.9604 47.5295 89.2159 47.659 89.4081 47.8355C89.6003 48.0119 89.736 48.242 89.8152 48.5256C89.8943 48.8093 89.935 49.1577 89.935 49.5664V50.2477C89.935 50.6586 89.8943 51.0048 89.8152 51.284C89.736 51.5655 89.6003 51.7933 89.4081 51.9653C89.2159 52.1395 88.9604 52.2645 88.6415 52.345C88.3227 52.4231 87.9202 52.4633 87.434 52.4633H85.6996ZM88.5081 49.6044C88.5081 49.39 88.49 49.2136 88.4561 49.0751C88.4199 48.9366 88.3566 48.8271 88.2639 48.749C88.1712 48.6708 88.0423 48.6172 87.875 48.5882C87.7076 48.5591 87.4973 48.5457 87.2418 48.5457H85.8895C85.634 48.5457 85.4237 48.5591 85.2609 48.5882C85.098 48.6172 84.9692 48.6708 84.8764 48.749C84.7837 48.8271 84.7204 48.9366 84.6842 49.0751C84.648 49.2136 84.6322 49.39 84.6322 49.6044V50.2097C84.6322 50.4241 84.6503 50.6006 84.6842 50.7346C84.7181 50.8708 84.7837 50.978 84.8764 51.0562C84.9692 51.1344 85.098 51.1902 85.2609 51.2215C85.4237 51.2528 85.634 51.2684 85.8895 51.2684H87.2418C87.4973 51.2684 87.7076 51.2528 87.875 51.2215C88.04 51.1902 88.1712 51.1344 88.2639 51.0562C88.3566 50.978 88.4199 50.8708 88.4561 50.7346C88.49 50.5983 88.5081 50.4241 88.5081 50.2097V49.6044Z" fill="black"/>
<path d="M96.2938 52.4633V49.6044C96.2938 49.39 96.2757 49.2158 96.2418 49.0795C96.2056 48.9433 96.1468 48.8361 96.0586 48.7579C95.9727 48.6797 95.8551 48.6239 95.7036 48.5926C95.5544 48.5614 95.3622 48.5457 95.1338 48.5457H93.5802C93.3564 48.5457 93.1687 48.5614 93.0194 48.5926C92.8702 48.6239 92.7503 48.6797 92.6599 48.7579C92.5694 48.8361 92.5084 48.9433 92.4722 49.0795C92.436 49.2158 92.4202 49.39 92.4202 49.6044V52.4633H90.991V49.5575C90.991 49.1465 91.0317 48.8003 91.1109 48.5167C91.19 48.233 91.3257 48.003 91.5179 47.831C91.7101 47.6568 91.9657 47.5317 92.2845 47.4513C92.6034 47.3731 93.0036 47.3329 93.483 47.3329H95.2174C95.7036 47.3329 96.1061 47.3731 96.425 47.4513C96.7438 47.5295 96.9994 47.6568 97.1916 47.831C97.3838 48.0052 97.5195 48.233 97.5986 48.5167C97.6778 48.8003 97.7185 49.1488 97.7185 49.5575V52.4656H96.2938V52.4633Z" fill="black"/>
<path d="M102.438 52.4633V51.2416H107.404C107.666 51.2416 107.854 51.2059 107.969 51.1321C108.084 51.0607 108.141 50.9133 108.141 50.6921V50.3415C108.141 50.1405 108.084 49.9953 107.969 49.9104C107.854 49.8255 107.668 49.7831 107.413 49.7831H104.297C103.933 49.7831 103.63 49.7496 103.39 49.6848C103.15 49.6178 102.96 49.5173 102.82 49.3811C102.68 49.2448 102.583 49.0751 102.528 48.8696C102.474 48.6641 102.447 48.4229 102.447 48.1459V47.8243C102.447 47.496 102.481 47.2145 102.553 46.9823C102.623 46.7477 102.732 46.5601 102.879 46.4194C103.026 46.2765 103.218 46.1737 103.453 46.1067C103.691 46.0397 103.971 46.0062 104.297 46.0062H109.473V47.2279H104.43C104.206 47.2279 104.041 47.2704 103.937 47.3553C103.831 47.4401 103.779 47.6121 103.779 47.8712V48.0789C103.779 48.2799 103.826 48.4251 103.924 48.51C104.019 48.5949 104.186 48.6373 104.421 48.6373H107.478C107.842 48.6373 108.15 48.6663 108.403 48.7266C108.657 48.7869 108.862 48.883 109.021 49.0148C109.181 49.1465 109.296 49.3185 109.367 49.5262C109.437 49.734 109.473 49.9841 109.473 50.2745V50.786C109.473 51.0897 109.437 51.3466 109.367 51.5588C109.296 51.7709 109.181 51.9429 109.021 52.0747C108.86 52.2065 108.654 52.3048 108.403 52.3673C108.15 52.4298 107.842 52.4611 107.478 52.4611H102.438V52.4633Z" fill="black"/>
<path d="M112.831 52.4633C112.352 52.4633 111.951 52.4231 111.632 52.345C111.314 52.2668 111.058 52.1395 110.866 51.9653C110.674 51.791 110.538 51.5655 110.459 51.284C110.38 51.0026 110.339 50.6586 110.339 50.2477V49.5575C110.339 49.1465 110.38 48.8003 110.459 48.5167C110.538 48.233 110.674 48.003 110.866 47.831C111.058 47.6568 111.314 47.5317 111.632 47.4513C111.951 47.3731 112.352 47.3329 112.831 47.3329H114.565C115.052 47.3329 115.454 47.3731 115.773 47.4513C116.092 47.5295 116.347 47.659 116.539 47.8355C116.732 48.0119 116.867 48.242 116.947 48.5256C117.026 48.8093 117.066 49.1577 117.066 49.5664V50.2477C117.066 50.6586 117.026 51.0048 116.947 51.284C116.867 51.5655 116.732 51.7933 116.539 51.9653C116.347 52.1395 116.092 52.2645 115.773 52.345C115.454 52.4231 115.052 52.4633 114.565 52.4633H112.831ZM115.639 49.6044C115.639 49.39 115.621 49.2136 115.587 49.0751C115.551 48.9366 115.488 48.8271 115.395 48.749C115.303 48.6708 115.174 48.6172 115.006 48.5882C114.839 48.5591 114.629 48.5457 114.373 48.5457H113.021C112.765 48.5457 112.555 48.5591 112.392 48.5882C112.229 48.6172 112.1 48.6708 112.008 48.749C111.915 48.8271 111.852 48.9366 111.816 49.0751C111.779 49.2136 111.764 49.39 111.764 49.6044V50.2097C111.764 50.4241 111.782 50.6006 111.816 50.7346C111.849 50.8708 111.915 50.978 112.008 51.0562C112.1 51.1344 112.229 51.1902 112.392 51.2215C112.555 51.2528 112.765 51.2684 113.021 51.2684H114.373C114.629 51.2684 114.839 51.2528 115.006 51.2215C115.171 51.1902 115.303 51.1344 115.395 51.0562C115.488 50.978 115.551 50.8708 115.587 50.7346C115.621 50.5983 115.639 50.4241 115.639 50.2097V49.6044Z" fill="black"/>
<path d="M118.152 52.4633V47.056C118.152 46.5378 118.29 46.1782 118.563 45.9772C118.839 45.7762 119.258 45.6734 119.818 45.6734H121.476V46.6763H120.038C119.859 46.6763 119.737 46.7053 119.674 46.7656C119.61 46.8259 119.579 46.9376 119.579 47.1029V47.3307H121.467V48.4765H119.579V52.4633H118.152Z" fill="black"/>
<path d="M122.6 52.4633V48.4765H121.872V47.3307H122.6V45.8811H124.056V47.3307H125.696V48.4765H124.056V52.4633H122.6Z" fill="black"/>
<path d="M131.105 48.9321L129.56 52.0948C129.483 52.2534 129.379 52.3785 129.248 52.4678C129.117 52.5594 128.956 52.604 128.764 52.604C128.547 52.604 128.382 52.5571 128.271 52.4678C128.16 52.3762 128.068 52.2511 127.998 52.0948L125.917 47.3307H127.364L128.859 50.786L130.345 47.7171C130.435 47.5473 130.535 47.4156 130.648 47.324C130.759 47.2324 130.921 47.1877 131.132 47.1877C131.342 47.1877 131.496 47.2302 131.611 47.315C131.726 47.3999 131.826 47.5339 131.907 47.7171L133.316 50.786L134.888 47.3307H136.306L134.13 52.0948C134.06 52.24 133.958 52.3606 133.827 52.4589C133.696 52.5571 133.536 52.6063 133.343 52.6063C133.151 52.6063 133 52.5571 132.868 52.4589C132.737 52.3606 132.638 52.24 132.565 52.0948L131.105 48.9321Z" fill="black"/>
<path d="M137.988 52.4633C137.61 52.4633 137.301 52.4321 137.059 52.3695C136.817 52.307 136.622 52.2176 136.48 52.0993C136.335 51.9831 136.236 51.8402 136.177 51.6727C136.12 51.5052 136.091 51.3175 136.091 51.1098V50.6274C136.091 50.413 136.118 50.2209 136.172 50.0556C136.226 49.8881 136.321 49.7474 136.455 49.629C136.588 49.5128 136.774 49.4235 137.007 49.3632C137.24 49.3029 137.536 49.2739 137.893 49.2739H141.737V49.1599C141.737 48.8316 141.67 48.6127 141.536 48.5011C141.403 48.3916 141.174 48.3358 140.855 48.3358H136.31L136.74 47.3329H140.853C141.269 47.3329 141.622 47.3709 141.911 47.4468C142.203 47.5228 142.441 47.6389 142.626 47.793C142.811 47.9471 142.947 48.1437 143.033 48.3804C143.119 48.6172 143.162 48.9009 143.162 49.227V50.4777C143.162 50.8507 143.126 51.1634 143.051 51.4158C142.977 51.6682 142.85 51.8737 142.667 52.0323C142.484 52.1908 142.242 52.3025 141.939 52.3695C141.636 52.4365 141.253 52.47 140.792 52.47H137.988V52.4633ZM141.737 50.1449H138.047C137.88 50.1449 137.751 50.1807 137.653 50.2544C137.558 50.3281 137.509 50.4643 137.509 50.6653V51.016C137.509 51.1992 137.561 51.3265 137.662 51.3957C137.764 51.4649 137.909 51.5007 138.094 51.5007H140.779C140.944 51.5007 141.088 51.4873 141.21 51.4627C141.333 51.4381 141.432 51.3912 141.507 51.3265C141.584 51.2595 141.64 51.1679 141.679 51.0473C141.717 50.9267 141.735 50.7726 141.735 50.5827V50.1449H141.737Z" fill="black"/>
<path d="M144.2 52.4633V49.4905C144.2 49.1063 144.245 48.778 144.333 48.5055C144.424 48.233 144.564 48.0119 144.761 47.8377C144.955 47.6635 145.206 47.5362 145.514 47.4535C145.821 47.3709 146.194 47.3307 146.635 47.3307H147.565V48.4765H146.674C146.475 48.4765 146.31 48.4921 146.176 48.5234C146.043 48.5547 145.934 48.6083 145.855 48.6842C145.776 48.7601 145.717 48.8651 145.683 48.9969C145.647 49.1287 145.631 49.2962 145.631 49.4994V52.4633H144.2Z" fill="black"/>
<path d="M149.657 50.4174V50.6542C149.657 50.8128 149.67 50.9378 149.695 51.0339C149.72 51.1277 149.767 51.2036 149.833 51.2572C149.901 51.3108 149.989 51.3466 150.102 51.3667C150.213 51.3845 150.353 51.3957 150.518 51.3957H154.995V52.4656H150.518C149.693 52.4656 149.105 52.3115 148.754 52.001C148.404 51.6928 148.227 51.1969 148.227 50.5135V49.3297C148.227 48.9567 148.264 48.644 148.338 48.3871C148.411 48.1325 148.539 47.927 148.723 47.7707C148.906 47.6166 149.145 47.5049 149.446 47.4334C149.747 47.3642 150.127 47.3284 150.588 47.3284H153.101C153.471 47.3284 153.779 47.3642 154.025 47.4334C154.272 47.5027 154.466 47.5987 154.611 47.7216C154.756 47.8444 154.855 47.994 154.914 48.166C154.971 48.3402 155 48.5279 155 48.7289V50.4152H149.657V50.4174ZM153.566 48.8472C153.566 48.6775 153.523 48.5636 153.437 48.5055C153.352 48.4497 153.2 48.4206 152.983 48.4206H150.606C150.428 48.4206 150.276 48.4296 150.156 48.4452C150.034 48.4608 149.937 48.4966 149.865 48.5547C149.79 48.6105 149.738 48.6931 149.706 48.8003C149.675 48.9076 149.659 49.0527 149.659 49.2359V49.5106H153.571V48.8472H153.566Z" fill="black"/>
</g>
<defs>
<clipPath id="clip0_25_2">
<rect width="155" height="54" fill="white"/>
</clipPath>
</defs>
</svg>
