<svg width="60" height="60" viewBox="0 0 60 60" fill="none" xmlns="http://www.w3.org/2000/svg">
<path opacity="0.35" d="M30 5C16.1925 5 5.00005 16.1925 5.00005 30C5.00005 33.98 5.95505 37.7275 7.60755 41.0675L5.09505 51.115C4.52255 53.4025 6.59505 55.4775 8.88505 54.905L18.9325 52.3925C22.2725 54.045 26.02 55 30 55C43.8075 55 55 43.8075 55 30C55 16.1925 43.8075 5 30 5Z" fill="#4EB0BD"/>
<path d="M21.2625 32.475C24.7074 32.475 27.5 29.6824 27.5 26.2375C27.5 22.7926 24.7074 20 21.2625 20C17.8176 20 15.025 22.7926 15.025 26.2375C15.025 29.6824 17.8176 32.475 21.2625 32.475Z" fill="#4EB0BD"/>
<path d="M23.2125 39.0275C25.1675 35.29 27.5 29.7225 27.5 25H20V38.25C20 40.035 22.385 40.6075 23.2125 39.0275Z" fill="#4EB0BD"/>
<path d="M38.7625 32.475C42.2074 32.475 45 29.6824 45 26.2375C45 22.7926 42.2074 20 38.7625 20C35.3176 20 32.525 22.7926 32.525 26.2375C32.525 29.6824 35.3176 32.475 38.7625 32.475Z" fill="#4EB0BD"/>
<path d="M40.7125 39.0275C42.6675 35.29 45 29.7225 45 25H37.5V38.25C37.5 40.035 39.885 40.6075 40.7125 39.0275Z" fill="#4EB0BD"/>
</svg>
